<?xml version="1.0" encoding="UTF-8"?> <!-- Generator: Adobe Illustrator 23.0.1, SVG Export Plug-In . SVG Version: 6.00 Build 0) --> <svg xmlns="http://www.w3.org/2000/svg" xmlns:xlink="http://www.w3.org/1999/xlink" id="Layer_1" x="0px" y="0px" viewBox="0 0 100 30" style="enable-background:new 0 0 100 30;" xml:space="preserve"> <style type="text/css"> .st0{fill:#4C4C4C;} </style> <g> <path class="st0" d="M1.9,25.2V4.1h3.6v12.4l5.2-6.5h4.1L9,17.3l6.3,8H11l-5.5-7.1v7.1H1.9z"></path> <path class="st0" d="M23.7,26.2L15.4,10h3.8l4.4,9.1l4.4-9.1h3.8L23.7,26.2z"></path> <path class="st0" d="M45.4,12.2V10H49v15.3h-3.6V23c-0.5,1.5-2.4,2.5-4.9,2.5c-2.2,0-4-0.8-5.5-2.3c-1.5-1.5-2.2-3.4-2.2-5.7 s0.7-4.2,2.2-5.7c1.5-1.5,3.3-2.3,5.5-2.3C43,9.6,44.9,10.7,45.4,12.2z M44.3,20.9c0.9-0.9,1.4-2,1.4-3.3s-0.5-2.5-1.4-3.3 c-0.9-0.9-2-1.3-3.3-1.3s-2.4,0.5-3.2,1.3c-0.8,0.9-1.3,2-1.3,3.3s0.4,2.5,1.3,3.3c0.9,0.9,1.9,1.3,3.2,1.3S43.4,21.8,44.3,20.9z"></path> <path class="st0" d="M64.1,12.2V10h3.6v15.3h-3.6V23c-0.5,1.5-2.4,2.5-4.9,2.5c-2.2,0-4-0.8-5.5-2.3c-1.5-1.5-2.2-3.4-2.2-5.7 s0.7-4.2,2.2-5.7c1.5-1.5,3.3-2.3,5.5-2.3C61.7,9.6,63.5,10.7,64.1,12.2z M63,20.9c0.9-0.9,1.4-2,1.4-3.3s-0.5-2.5-1.4-3.3 c-0.9-0.9-2-1.3-3.3-1.3c-1.3,0-2.4,0.5-3.2,1.3c-0.8,0.9-1.3,2-1.3,3.3s0.4,2.5,1.3,3.3c0.9,0.9,1.9,1.3,3.2,1.3 C61,22.3,62.1,21.8,63,20.9z"></path> <path class="st0" d="M70.9,25.2V4.1h3.6v21.1H70.9z"></path> <path class="st0" d="M79.2,21.3c1.1,0,2.1,0.9,2.1,2.1c0,1.2-1,2.1-2.1,2.1s-2.1-0.9-2.1-2.1C77.1,22.3,78.1,21.3,79.2,21.3z"></path> <path class="st0" d="M83.2,25.2v-8.9h2.1v1.3c0.4-0.9,1.4-1.5,2.7-1.5c0.2,0,0.5,0,0.6,0.1v2.1c-0.3-0.1-0.6-0.1-0.9-0.1 c-1.5,0-2.4,0.9-2.4,2.4v4.7H83.2z"></path> <path class="st0" d="M90,16.3h2.1v5.2c0,1.3,0.8,2,1.9,2c1.2,0,1.9-0.7,1.9-2v-5.2h2.1v5.3c0,1.2-0.4,2.2-1.2,2.8 c-0.8,0.7-1.8,1-2.9,1c-1.2,0-2.2-0.3-2.9-1c-0.8-0.7-1.2-1.6-1.2-2.8V16.3z"></path> </g> </svg> 